<?xml version="1.0" encoding="UTF-8" standalone="no"?>
<svg
   viewBox="0 0 50 50"
   x="0px"
   y="0px"
   version="1.1"
   id="svg20"
   sodipodi:docname="icon-heartbeat.svg"
   width="50"
   height="50"
   inkscape:version="1.1.2 (0a00cf5339, 2022-02-04)"
   xmlns:inkscape="http://www.inkscape.org/namespaces/inkscape"
   xmlns:sodipodi="http://sodipodi.sourceforge.net/DTD/sodipodi-0.dtd"
   xmlns="http://www.w3.org/2000/svg"
   xmlns:svg="http://www.w3.org/2000/svg">
  <defs
     id="defs24" />
  <sodipodi:namedview
     id="namedview22"
     pagecolor="#ffffff"
     bordercolor="#666666"
     borderopacity="1.0"
     inkscape:pageshadow="2"
     inkscape:pageopacity="0.0"
     inkscape:pagecheckerboard="0"
     showgrid="false"
     inkscape:zoom="8"
     inkscape:cx="75.1875"
     inkscape:cy="21.5625"
     inkscape:window-width="5120"
     inkscape:window-height="1371"
     inkscape:window-x="0"
     inkscape:window-y="1112"
     inkscape:window-maximized="1"
     inkscape:current-layer="svg20" />
  <g
     id="g6"
     style="fill:#003380;stroke:#d7e3f4"
     transform="matrix(1.8094573,0,0,1.8094573,-11.189146,-22.04589)">
    <path
       d="m 13.46,25 1.7,-2.55 c 0.44,-0.66 1.44,-0.57 1.75,0.16 l 2.1,4.89 3.07,-6.91 c 0.34,-0.77 1.5,-0.81 1.84,0.04 L 25.67,25 h 6.76 C 32.79,24.02 33,22.99 33,21.89 33,17.39 29.99,14 26,14 23.04,14 21.04,15.58 20,16.69 18.96,15.57 16.96,14 14,14 10.01,14 7,17.39 7,21.89 7,23 7.2,24.02 7.57,25 Z"
       id="path2"
       style="fill:#003380;stroke:#d7e3f4"
       sodipodi:nodetypes="csccccccsscssczc" />
    <path
       d="m 25,27 c -0.41,0 -0.78,-0.25 -0.93,-0.63 l -1.12,-2.8 -3.04,6.83 c -0.35,0.8 -1.49,0.79 -1.83,-0.01 l -2.27,-5.3 -0.98,1.46 C 14.64,26.83 14.33,27 14,27 H 8.57 c 1.58,2.51 4.26,4.91 7.66,7.94 3.42,3.05 3.24,3.06 3.78,3.06 0.54,0 0.4,-0.04 3.78,-3.06 3.39,-3.03 6.08,-5.43 7.66,-7.94 h -6.43 z"
       id="path4"
       style="fill:#003380;stroke:#d7e3f4" />
  </g>
  <g
     id="g14" />
</svg>
